<?xml version="1.0" encoding="UTF-8"?>
<svg version="1.1" xmlns="http://www.w3.org/2000/svg" width="256" height="256">
<path d="M0 0 C84.48 0 168.96 0 256 0 C256 84.48 256 168.96 256 256 C171.52 256 87.04 256 0 256 C0 171.52 0 87.04 0 0 Z " fill="#F78423" transform="translate(0,0)"/>
<path d="M0 0 C84.48 0 168.96 0 256 0 C256 84.48 256 168.96 256 256 C171.52 256 87.04 256 0 256 C0 171.52 0 87.04 0 0 Z M26 26 C26 93.65 26 161.3 26 231 C93.65 231 161.3 231 231 231 C231 163.35 231 95.7 231 26 C163.35 26 95.7 26 26 26 Z " fill="#F78726" transform="translate(0,0)"/>
<path d="M0 0 C67.65 0 135.3 0 205 0 C205 67.65 205 135.3 205 205 C137.35 205 69.7 205 0 205 C0 137.35 0 69.7 0 0 Z M26 26 C26 76.49 26 126.98 26 179 C76.49 179 126.98 179 179 179 C179 128.51 179 78.02 179 26 C128.51 26 78.02 26 26 26 Z " fill="#DC650D" transform="translate(26,26)"/>
<path d="M0 0 C25.41 0 50.82 0 77 0 C77 50.49 77 100.98 77 153 C51.59 153 26.18 153 0 153 C0 144.75 0 136.5 0 128 C17.16 128 34.32 128 52 128 C52 94.01 52 60.02 52 25 C34.84 25 17.68 25 0 25 C0 16.75 0 8.5 0 0 Z " fill="#F78B23" transform="translate(128,52)"/>
<path d="M0 0 C25.41 0 50.82 0 77 0 C77 33.99 77 67.98 77 103 C51.59 103 26.18 103 0 103 C0 94.42 0 85.84 0 77 C16.83 77 33.66 77 51 77 C51 60.17 51 43.34 51 26 C34.17 26 17.34 26 0 26 C0 17.42 0 8.84 0 0 Z " fill="#BE5B18" transform="translate(103,77)"/>
<path d="M0 0 C8.58 0 17.16 0 26 0 C26 8.58 26 17.16 26 26 C42.83 26 59.66 26 77 26 C77 42.83 77 59.66 77 77 C60.17 77 43.34 77 26 77 C26 85.58 26 94.16 26 103 C17.42 103 8.84 103 0 103 C0 69.01 0 35.02 0 0 Z " fill="#DC650C" transform="translate(77,77)"/>
<path d="M0 0 C8.58 0 17.16 0 26 0 C26 16.83 26 33.66 26 51 C-24.82 51 -75.64 51 -128 51 C-128 42.42 -128 33.84 -128 25 C-85.76 25 -43.52 25 0 25 C0 16.75 0 8.5 0 0 Z " fill="#D65E0E" transform="translate(205,180)"/>
<path d="M0 0 C16.83 0 33.66 0 51 0 C51 16.83 51 33.66 51 51 C34.17 51 17.34 51 0 51 C0 34.17 0 17.34 0 0 Z " fill="#F78224" transform="translate(103,103)"/>
<path d="M0 0 C8.25 0 16.5 0 25 0 C25 33.66 25 67.32 25 102 C16.75 102 8.5 102 0 102 C0 68.34 0 34.68 0 0 Z " fill="#F99E30" transform="translate(231,154)"/>
<path d="M0 0 C8.58 0 17.16 0 26 0 C26 16.83 26 33.66 26 51 C9.17 51 -7.66 51 -25 51 C-25 42.42 -25 33.84 -25 25 C-16.75 25 -8.5 25 0 25 C0 16.75 0 8.5 0 0 Z " fill="#C25D17" transform="translate(205,180)"/>
<path d="M0 0 C8.58 0 17.16 0 26 0 C26 16.83 26 33.66 26 51 C17.42 51 8.84 51 0 51 C0 34.17 0 17.34 0 0 Z " fill="#DE670E" transform="translate(77,77)"/>
<path d="M0 0 C8.25 0 16.5 0 25 0 C25 16.83 25 33.66 25 51 C16.75 51 8.5 51 0 51 C0 34.17 0 17.34 0 0 Z " fill="#F79123" transform="translate(231,103)"/>
<path d="M0 0 C8.58 0 17.16 0 26 0 C26 8.58 26 17.16 26 26 C17.42 26 8.84 26 0 26 C0 17.42 0 8.84 0 0 Z " fill="#C25D17" transform="translate(77,128)"/>
<path d="M0 0 C8.58 0 17.16 0 26 0 C26 8.58 26 17.16 26 26 C17.42 26 8.84 26 0 26 C0 17.42 0 8.84 0 0 Z " fill="#F99E30" transform="translate(26,0)"/>
<path d="M0 0 C8.58 0 17.16 0 26 0 C26 8.25 26 16.5 26 25 C17.42 25 8.84 25 0 25 C0 16.75 0 8.5 0 0 Z " fill="#F79123" transform="translate(205,231)"/>
<path d="M0 0 C8.25 0 16.5 0 25 0 C25 8.58 25 17.16 25 26 C16.75 26 8.5 26 0 26 C0 17.42 0 8.84 0 0 Z " fill="#C25D17" transform="translate(103,154)"/>
<path d="M0 0 C8.25 0 16.5 0 25 0 C25 8.58 25 17.16 25 26 C16.75 26 8.5 26 0 26 C0 17.42 0 8.84 0 0 Z " fill="#B75A1B" transform="translate(103,77)"/>
<path d="M0 0 C8.58 0 17.16 0 26 0 C26 8.25 26 16.5 26 25 C17.42 25 8.84 25 0 25 C0 16.75 0 8.5 0 0 Z " fill="#F78528" transform="translate(0,52)"/>
<path d="M0 0 C8.25 0 16.5 0 25 0 C25 8.25 25 16.5 25 25 C16.75 25 8.5 25 0 25 C0 16.75 0 8.5 0 0 Z " fill="#F87E1F" transform="translate(180,231)"/>
<path d="M0 0 C8.25 0 16.5 0 25 0 C25 8.25 25 16.5 25 25 C16.75 25 8.5 25 0 25 C0 16.75 0 8.5 0 0 Z " fill="#F87E1F" transform="translate(103,103)"/>
</svg>
